<svg xmlns="http://www.w3.org/2000/svg" viewBox="0 0 1280 1780" font-family="-apple-system, system-ui, sans-serif">
  <rect width="1280" height="1780" fill="#fafaf9"/>

  <!-- Top Nav -->
  <rect x="0" y="0" width="1280" height="72" fill="#ffffff" stroke="#e4e4e7" stroke-width="1"/>
  <text x="80" y="44" fill="#0f172a" font-size="15" font-weight="700" font-family="ui-monospace, SFMono-Regular, monospace">~/navneet</text>
  <g font-size="13" fill="#374151">
    <text x="880" y="44">Work</text>
    <text x="940" y="44" font-weight="700" fill="#0f172a">Writing</text>
    <line x1="938" y1="50" x2="982" y2="50" stroke="#0f172a" stroke-width="2"/>
    <text x="1010" y="44">About</text>
    <text x="1065" y="44">Contact</text>
  </g>
  <rect x="1135" y="22" width="65" height="30" rx="6" fill="#0f172a"/>
  <text x="1145" y="42" font-size="12" fill="#ffffff">Resume</text>

  <!-- Page Header -->
  <text x="80" y="170" font-size="12" font-weight="700" fill="#0f172a" letter-spacing="2" font-family="ui-monospace, SFMono-Regular, monospace">// WRITING</text>
  <text x="80" y="220" font-size="48" font-weight="700" fill="#0f172a">Notes from the work</text>
  <rect x="80" y="250" width="780" height="13" rx="2" fill="#e5e7eb"/>
  <rect x="80" y="274" width="700" height="13" rx="2" fill="#e5e7eb"/>
  <text x="80" y="320" font-size="13" fill="#64748b">Field notes on distributed systems, data platforms, and large-scale migrations — written after the dust settles.</text>

  <!-- Search + filter row -->
  <rect x="80" y="360" width="420" height="44" rx="8" fill="#ffffff" stroke="#d1d5db"/>
  <text x="100" y="388" font-size="13" fill="#9ca3af">🔍  Search posts…</text>

  <g font-size="12" font-family="ui-monospace, SFMono-Regular, monospace">
    <rect x="540" y="368" width="60" height="28" rx="14" fill="#0f172a"/>
    <text x="558" y="386" fill="#ffffff">All</text>
    <rect x="610" y="368" width="140" height="28" rx="14" fill="#ffffff" stroke="#d1d5db"/>
    <text x="624" y="386" fill="#374151">Distributed Systems</text>
    <rect x="760" y="368" width="110" height="28" rx="14" fill="#ffffff" stroke="#d1d5db"/>
    <text x="776" y="386" fill="#374151">Data Platforms</text>
    <rect x="880" y="368" width="100" height="28" rx="14" fill="#ffffff" stroke="#d1d5db"/>
    <text x="895" y="386" fill="#374151">Migrations</text>
    <rect x="990" y="368" width="78" height="28" rx="14" fill="#ffffff" stroke="#d1d5db"/>
    <text x="1009" y="386" fill="#374151">Notes</text>
  </g>
  <text x="1090" y="386" font-size="12" fill="#64748b">Sort: Newest ▾</text>

  <!-- Featured post -->
  <rect x="80" y="440" width="1120" height="280" rx="12" fill="#ffffff" stroke="#e5e7eb"/>
  <rect x="80" y="440" width="440" height="280" rx="12" fill="#0f172a"/>
  <!-- mini arch illustration on cover -->
  <text x="100" y="476" font-size="10" font-family="ui-monospace, SFMono-Regular, monospace" fill="#64748b">// featured</text>
  <rect x="110" y="540" width="90" height="36" rx="6" fill="#ffffff"/>
  <text x="124" y="563" font-size="11" fill="#0f172a">EC2/systemd</text>
  <line x1="200" y1="558" x2="240" y2="558" stroke="#ffffff" stroke-width="1.5"/>
  <rect x="240" y="540" width="80" height="36" rx="6" fill="#10b981"/>
  <text x="265" y="563" font-size="11" fill="#ffffff">EKS</text>
  <text x="110" y="630" font-size="11" font-family="ui-monospace, SFMono-Regular, monospace" fill="#94a3b8">45 services · 250+ instances</text>
  <text x="110" y="650" font-size="11" font-family="ui-monospace, SFMono-Regular, monospace" fill="#94a3b8">90min → 20min deploys</text>

  <rect x="560" y="470" width="80" height="22" rx="11" fill="#fef3c7"/>
  <text x="572" y="486" font-size="11" fill="#92400e">FEATURED</text>
  <text x="560" y="520" font-size="11" fill="#64748b" font-family="ui-monospace, SFMono-Regular, monospace">2026-05-14 · 9 min · MIGRATIONS</text>
  <text x="560" y="562" font-size="28" font-weight="700" fill="#0f172a">Migrating 45 services from</text>
  <text x="560" y="596" font-size="28" font-weight="700" fill="#0f172a">EC2/systemd to EKS — and</text>
  <text x="560" y="630" font-size="28" font-weight="700" fill="#0f172a">cutting deploys 4.5×</text>
  <rect x="560" y="650" width="600" height="12" rx="2" fill="#e5e7eb"/>
  <rect x="560" y="670" width="540" height="12" rx="2" fill="#e5e7eb"/>
  <text x="560" y="704" font-size="13" fill="#0f172a" font-weight="600">Read post →</text>

  <!-- Post list (3 columns x 2 rows) -->
  <g>
    <!-- Row 1 -->
    <g>
      <rect x="80" y="760" width="360" height="340" rx="12" fill="#ffffff" stroke="#e5e7eb"/>
      <rect x="80" y="760" width="360" height="170" rx="12" fill="#1e3a8a"/>
      <text x="100" y="794" font-size="10" font-family="ui-monospace, SFMono-Regular, monospace" fill="#93c5fd">// data platform</text>
      <text x="100" y="850" font-size="16" font-weight="700" fill="#ffffff">Mongo → StarRocks</text>
      <text x="100" y="872" font-size="11" font-family="ui-monospace, SFMono-Regular, monospace" fill="#bfdbfe">ms-latency dashboards</text>
      <text x="100" y="960" font-size="11" fill="#64748b" font-family="ui-monospace, SFMono-Regular, monospace">2026-04-28 · 7 min · DATA</text>
      <text x="100" y="990" font-size="17" font-weight="700" fill="#0f172a">Why we replaced analytics</text>
      <text x="100" y="1012" font-size="17" font-weight="700" fill="#0f172a">on Mongo with StarRocks</text>
      <rect x="100" y="1030" width="320" height="10" rx="2" fill="#e5e7eb"/>
      <rect x="100" y="1048" width="280" height="10" rx="2" fill="#e5e7eb"/>
      <g font-size="10" font-family="ui-monospace, SFMono-Regular, monospace">
        <rect x="100" y="1072" width="70" height="20" rx="10" fill="#eef2ff"/>
        <text x="110" y="1086" fill="#4338ca">StarRocks</text>
      </g>
    </g>
    <g>
      <rect x="460" y="760" width="360" height="340" rx="12" fill="#ffffff" stroke="#e5e7eb"/>
      <rect x="460" y="760" width="360" height="170" rx="12" fill="#0f172a"/>
      <text x="480" y="794" font-size="10" font-family="ui-monospace, SFMono-Regular, monospace" fill="#94a3b8">// distributed systems</text>
      <text x="480" y="850" font-size="16" font-weight="700" fill="#ffffff">Debezium CDC pipeline</text>
      <text x="480" y="872" font-size="11" font-family="ui-monospace, SFMono-Regular, monospace" fill="#94a3b8">multi-tenant Mongo → Kafka</text>
      <text x="480" y="960" font-size="11" fill="#64748b" font-family="ui-monospace, SFMono-Regular, monospace">2026-04-10 · 11 min · DIST. SYS.</text>
      <text x="480" y="990" font-size="17" font-weight="700" fill="#0f172a">Designing a CDC pipeline</text>
      <text x="480" y="1012" font-size="17" font-weight="700" fill="#0f172a">with Debezium and Kafka</text>
      <rect x="480" y="1030" width="320" height="10" rx="2" fill="#e5e7eb"/>
      <rect x="480" y="1048" width="240" height="10" rx="2" fill="#e5e7eb"/>
      <g font-size="10" font-family="ui-monospace, SFMono-Regular, monospace">
        <rect x="480" y="1072" width="60" height="20" rx="10" fill="#eef2ff"/>
        <text x="491" y="1086" fill="#4338ca">Kafka</text>
        <rect x="546" y="1072" width="78" height="20" rx="10" fill="#eef2ff"/>
        <text x="559" y="1086" fill="#4338ca">Debezium</text>
      </g>
    </g>
    <g>
      <rect x="840" y="760" width="360" height="340" rx="12" fill="#ffffff" stroke="#e5e7eb"/>
      <rect x="840" y="760" width="360" height="170" rx="12" fill="#7c2d12"/>
      <text x="860" y="794" font-size="10" font-family="ui-monospace, SFMono-Regular, monospace" fill="#fed7aa">// telemetry</text>
      <text x="860" y="850" font-size="16" font-weight="700" fill="#ffffff">GPS noise filtering</text>
      <text x="860" y="872" font-size="11" font-family="ui-monospace, SFMono-Regular, monospace" fill="#fed7aa">8–10k vehicles · 80M evts/day</text>
      <text x="860" y="960" font-size="11" fill="#64748b" font-family="ui-monospace, SFMono-Regular, monospace">2026-03-22 · 8 min · DIST. SYS.</text>
      <text x="860" y="990" font-size="17" font-weight="700" fill="#0f172a">Normalizing GPS data</text>
      <text x="860" y="1012" font-size="17" font-weight="700" fill="#0f172a">from 8k vehicles</text>
      <rect x="860" y="1030" width="320" height="10" rx="2" fill="#e5e7eb"/>
      <rect x="860" y="1048" width="260" height="10" rx="2" fill="#e5e7eb"/>
      <g font-size="10" font-family="ui-monospace, SFMono-Regular, monospace">
        <rect x="860" y="1072" width="60" height="20" rx="10" fill="#eef2ff"/>
        <text x="872" y="1086" fill="#4338ca">GPS</text>
        <rect x="926" y="1072" width="62" height="20" rx="10" fill="#eef2ff"/>
        <text x="935" y="1086" fill="#4338ca">Node.js</text>
      </g>
    </g>

    <!-- Row 2 -->
    <g>
      <rect x="80" y="1130" width="360" height="340" rx="12" fill="#ffffff" stroke="#e5e7eb"/>
      <rect x="80" y="1130" width="360" height="170" rx="12" fill="#374151"/>
      <text x="100" y="1164" font-size="10" font-family="ui-monospace, SFMono-Regular, monospace" fill="#9ca3af">// runtime upgrade</text>
      <text x="100" y="1220" font-size="16" font-weight="700" fill="#ffffff">Java 8 → 17</text>
      <text x="100" y="1242" font-size="11" font-family="ui-monospace, SFMono-Regular, monospace" fill="#d1d5db">35 services · 100+ CVEs closed</text>
      <text x="100" y="1330" font-size="11" fill="#64748b" font-family="ui-monospace, SFMono-Regular, monospace">2026-03-02 · 6 min · MIGRATIONS</text>
      <text x="100" y="1360" font-size="17" font-weight="700" fill="#0f172a">Cascading dependency hell:</text>
      <text x="100" y="1382" font-size="17" font-weight="700" fill="#0f172a">Java 8 → 17 across 35 svc</text>
      <rect x="100" y="1400" width="320" height="10" rx="2" fill="#e5e7eb"/>
      <rect x="100" y="1418" width="280" height="10" rx="2" fill="#e5e7eb"/>
      <g font-size="10" font-family="ui-monospace, SFMono-Regular, monospace">
        <rect x="100" y="1442" width="50" height="20" rx="10" fill="#eef2ff"/>
        <text x="111" y="1456" fill="#4338ca">Java</text>
        <rect x="156" y="1442" width="80" height="20" rx="10" fill="#eef2ff"/>
        <text x="168" y="1456" fill="#4338ca">Migrations</text>
      </g>
    </g>
    <g>
      <rect x="460" y="1130" width="360" height="340" rx="12" fill="#ffffff" stroke="#e5e7eb"/>
      <rect x="460" y="1130" width="360" height="170" rx="12" fill="#065f46"/>
      <text x="480" y="1164" font-size="10" font-family="ui-monospace, SFMono-Regular, monospace" fill="#a7f3d0">// lakehouse</text>
      <text x="480" y="1220" font-size="16" font-weight="700" fill="#ffffff">Bronze / Silver / Gold</text>
      <text x="480" y="1242" font-size="11" font-family="ui-monospace, SFMono-Regular, monospace" fill="#a7f3d0">Spark + Iceberg · 10–15 TB</text>
      <text x="480" y="1330" font-size="11" fill="#64748b" font-family="ui-monospace, SFMono-Regular, monospace">2026-02-18 · 10 min · DATA</text>
      <text x="480" y="1360" font-size="17" font-weight="700" fill="#0f172a">Building a lakehouse</text>
      <text x="480" y="1382" font-size="17" font-weight="700" fill="#0f172a">with Iceberg + Airflow</text>
      <rect x="480" y="1400" width="320" height="10" rx="2" fill="#e5e7eb"/>
      <rect x="480" y="1418" width="240" height="10" rx="2" fill="#e5e7eb"/>
      <g font-size="10" font-family="ui-monospace, SFMono-Regular, monospace">
        <rect x="480" y="1442" width="62" height="20" rx="10" fill="#eef2ff"/>
        <text x="492" y="1456" fill="#4338ca">Iceberg</text>
        <rect x="548" y="1442" width="58" height="20" rx="10" fill="#eef2ff"/>
        <text x="560" y="1456" fill="#4338ca">Spark</text>
      </g>
    </g>
    <g>
      <rect x="840" y="1130" width="360" height="340" rx="12" fill="#ffffff" stroke="#e5e7eb"/>
      <rect x="840" y="1130" width="360" height="170" rx="12" fill="#4338ca"/>
      <text x="860" y="1164" font-size="10" font-family="ui-monospace, SFMono-Regular, monospace" fill="#c7d2fe">// observability</text>
      <text x="860" y="1220" font-size="16" font-weight="700" fill="#ffffff">OTel + Grafana stack</text>
      <text x="860" y="1242" font-size="11" font-family="ui-monospace, SFMono-Regular, monospace" fill="#c7d2fe">Loki · Tempo · VictoriaMetrics</text>
      <text x="860" y="1330" font-size="11" fill="#64748b" font-family="ui-monospace, SFMono-Regular, monospace">2026-02-01 · 9 min · DIST. SYS.</text>
      <text x="860" y="1360" font-size="17" font-weight="700" fill="#0f172a">Trace, log, metric:</text>
      <text x="860" y="1382" font-size="17" font-weight="700" fill="#0f172a">an OpenTelemetry setup</text>
      <rect x="860" y="1400" width="320" height="10" rx="2" fill="#e5e7eb"/>
      <rect x="860" y="1418" width="260" height="10" rx="2" fill="#e5e7eb"/>
      <g font-size="10" font-family="ui-monospace, SFMono-Regular, monospace">
        <rect x="860" y="1442" width="46" height="20" rx="10" fill="#eef2ff"/>
        <text x="869" y="1456" fill="#4338ca">OTel</text>
        <rect x="912" y="1442" width="64" height="20" rx="10" fill="#eef2ff"/>
        <text x="922" y="1456" fill="#4338ca">Grafana</text>
      </g>
    </g>
  </g>

  <!-- Pagination -->
  <g font-size="13">
    <rect x="540" y="1510" width="36" height="36" rx="6" fill="#0f172a"/>
    <text x="554" y="1534" fill="#ffffff">1</text>
    <rect x="586" y="1510" width="36" height="36" rx="6" fill="#ffffff" stroke="#d1d5db"/>
    <text x="600" y="1534" fill="#374151">2</text>
    <rect x="632" y="1510" width="36" height="36" rx="6" fill="#ffffff" stroke="#d1d5db"/>
    <text x="646" y="1534" fill="#374151">3</text>
    <text x="682" y="1534" fill="#6b7280">…</text>
    <rect x="710" y="1510" width="70" height="36" rx="6" fill="#ffffff" stroke="#d1d5db"/>
    <text x="725" y="1534" fill="#374151">Next →</text>
  </g>

  <!-- Newsletter CTA -->
  <rect x="80" y="1590" width="1120" height="130" rx="12" fill="#0f172a"/>
  <text x="110" y="1632" font-size="11" font-family="ui-monospace, SFMono-Regular, monospace" fill="#94a3b8">// subscribe</text>
  <text x="110" y="1662" font-size="22" font-weight="700" fill="#ffffff">New posts in your inbox</text>
  <text x="110" y="1690" font-size="13" fill="#94a3b8">Roughly once a month. Backend systems, data infra, real things I had to figure out. No spam.</text>
  <rect x="740" y="1632" width="280" height="44" rx="6" fill="#ffffff"/>
  <text x="760" y="1660" font-size="13" fill="#9ca3af">you@domain.com</text>
  <rect x="1030" y="1632" width="140" height="44" rx="6" fill="#10b981"/>
  <text x="1062" y="1660" font-size="13" fill="#ffffff" font-weight="700">Subscribe</text>

  <!-- Footer -->
  <rect x="0" y="1740" width="1280" height="40" fill="#f1f5f9"/>
  <text x="80" y="1765" font-size="11" fill="#64748b" font-family="ui-monospace, SFMono-Regular, monospace">© 2026 Navneet Lal Gupta · navneetlalg@gmail.com</text>
</svg>
